<svg width="81" height="80" viewBox="0 0 81 80" fill="none" xmlns="http://www.w3.org/2000/svg">
<path d="M68.9968 50.6546L65.2161 49.5744C65.0529 49.5278 64.9389 49.3767 64.9389 49.2069V47.9449C65.2465 47.7318 65.5399 47.4933 65.8141 47.2271C67.1434 45.9372 67.8753 44.207 67.8753 42.3552V40.6138L68.2409 39.8828C68.6421 39.0802 68.8541 38.1818 68.8541 37.2847V32.5671C68.8541 32.0616 68.4442 31.6517 67.9387 31.6517H59.1294C55.9261 31.6517 53.3199 34.2579 53.3199 37.4612V37.5157C53.3199 38.2617 53.4963 39.0088 53.8299 39.676L54.2987 40.6137V42.1089C54.2987 44.4785 55.4665 46.6046 57.2352 47.884L57.2354 49.2067C57.2354 49.4106 57.2354 49.4951 56.4795 49.7111L54.6348 50.2382L49.2983 48.2977C49.3174 48.0459 49.2325 47.7898 49.0488 47.5968L47.3435 45.8053V42.7978C47.5238 42.6492 47.7015 42.4966 47.8737 42.3353C50.025 40.3189 51.2588 37.472 51.2588 34.5247V32.1228C51.9083 30.7093 52.2375 29.2135 52.2375 27.673V17.8852C52.2375 17.3796 51.8277 16.9697 51.3221 16.9697H37.6188C32.7963 16.9697 28.873 20.8932 28.873 25.7155V27.6732C28.873 29.2137 29.2022 30.7095 29.8518 32.1231V34.1896C29.8518 37.6117 31.3733 40.6946 33.767 42.7271V45.8054L32.0618 47.597C31.8781 47.7899 31.7931 48.046 31.8123 48.2978L26.1799 50.3458C25.7717 50.4942 25.3925 50.6953 25.0482 50.9388L24.1638 50.4966C26.7965 49.3506 27.6306 47.7388 27.6706 47.6587C27.7995 47.4011 27.7995 47.0976 27.6706 46.84C27.0106 45.52 26.9307 43.1007 26.8665 41.1568C26.8451 40.5097 26.8249 39.8983 26.7862 39.3539C26.4741 34.963 23.136 31.6517 19.0215 31.6517C14.9069 31.6517 11.5687 34.9629 11.2568 39.3539C11.2181 39.8984 11.1978 40.5098 11.1764 41.1571C11.1122 43.1008 11.0322 45.5199 10.3723 46.8398C10.2434 47.0975 10.2434 47.4009 10.3723 47.6586C10.4124 47.7387 11.2447 49.3471 13.8827 50.4945L11.4261 51.7228C10.1127 52.3799 9.29688 53.7 9.29688 55.1682V61.9313C9.29688 62.4369 9.70675 62.8467 10.2123 62.8467C10.7179 62.8467 11.1277 62.4369 11.1277 61.9313V55.1682C11.1277 54.3978 11.5558 53.7051 12.2448 53.3605L15.3039 51.831L16.368 52.8423C17.1121 53.5493 18.0666 53.9027 19.0215 53.9027C19.9761 53.9027 20.9311 53.5491 21.6749 52.8423L22.7389 51.8311L23.7363 52.3299C23.2666 53.0814 23.0001 53.9626 23.0001 54.8858V61.9315C23.0001 62.4371 23.4099 62.847 23.9155 62.847C24.4211 62.847 24.8309 62.4371 24.8309 61.9315V54.8858C24.8309 53.629 25.6244 52.4961 26.8056 52.0666L32.7439 49.9073L35.216 53.6155C35.532 54.0896 36.0384 54.3936 36.6054 54.4498C36.6686 54.456 36.7314 54.459 36.7942 54.459C37.2944 54.459 37.7734 54.2622 38.1316 53.9042L39.6397 52.396V61.9317C39.6397 62.4372 40.0496 62.8471 40.5551 62.8471C41.0607 62.8471 41.4706 62.4372 41.4706 61.9317V52.396L42.9787 53.9042C43.3367 54.2623 43.8158 54.4592 44.3161 54.4592C44.3787 54.4592 44.4417 54.4561 44.5048 54.4499C45.0719 54.3937 45.5783 54.0897 45.8943 53.6156L48.3665 49.9075L54.3047 52.0668C55.4857 52.4964 56.2794 53.6293 56.2794 54.886V61.9318C56.2794 62.4374 56.6892 62.8472 57.1948 62.8472C57.7004 62.8472 58.1102 62.4374 58.1102 61.9318V54.886C58.1102 53.6132 57.6045 52.4195 56.7562 51.5366L56.9824 51.472C57.2105 51.4069 57.5218 51.3176 57.8343 51.1645L60.1715 53.5017V61.9318C60.1715 62.4374 60.5814 62.8472 61.087 62.8472C61.5925 62.8472 62.0024 62.4374 62.0024 61.9318V53.5017L64.3235 51.1807C64.4469 51.2434 64.5765 51.2964 64.7129 51.3353L68.4938 52.4156C69.3568 52.6621 69.9596 53.4612 69.9596 54.3588V61.9318C69.9596 62.4374 70.3695 62.8472 70.875 62.8472C71.3806 62.8472 71.7905 62.4374 71.7905 61.9318V54.3588C71.7905 52.6478 70.6417 51.1247 68.9968 50.6546ZM15.1697 49.0377C13.4573 48.4216 12.5984 47.6001 12.2318 47.1516C12.4817 46.4981 12.6438 45.7496 12.7536 44.9595C13.2584 46.17 14.1039 47.2033 15.1697 47.9405V49.0377ZM20.4139 51.5153C19.6331 52.2571 18.41 52.257 17.6294 51.5151L16.778 50.7061C16.9217 50.437 17.0007 50.1319 17.0007 49.8122V48.8364C17.6393 49.036 18.3182 49.1437 19.0217 49.1437C19.7244 49.1437 20.4029 49.0355 21.0426 48.8371L21.0425 49.8121C21.0425 50.1319 21.1213 50.4371 21.2651 50.7064L20.4139 51.5153ZM19.022 47.3128C16.2883 47.3128 14.0646 45.0889 14.0646 42.3554C14.0646 41.8499 13.6547 41.44 13.1491 41.44C13.0979 41.44 13.0478 41.4452 12.9989 41.4534C13.0016 41.3747 13.0041 41.2958 13.0068 41.2178C13.0272 40.5884 13.0469 39.9939 13.0831 39.4839C13.2 37.839 13.8573 36.3233 14.9339 35.2158C16.0201 34.0982 17.4718 33.4828 19.0217 33.4828C20.5716 33.4828 22.0232 34.0982 23.1095 35.2158C24.1861 36.3233 24.8434 37.839 24.9603 39.4839C24.9964 39.9937 25.0162 40.5882 25.037 41.2175C25.0388 41.2716 25.0406 41.3264 25.0425 41.3808C24.0465 39.8463 22.5083 38.7154 20.5208 38.0768C18.6847 37.4869 17.1055 37.5234 17.0389 37.5251C16.7992 37.5318 16.5716 37.6322 16.4053 37.8047L14.7536 39.5177C14.4027 39.8817 14.4132 40.4612 14.7771 40.8121C15.1411 41.163 15.7207 41.1524 16.0716 40.7886L17.4459 39.3633C18.6295 39.4212 22.4374 39.864 23.9183 43.125C23.5457 45.5281 21.4802 47.3128 19.022 47.3128ZM22.8732 49.0408L22.8734 47.949C23.9383 47.2158 24.785 46.1844 25.2902 44.9648C25.4 45.753 25.5619 46.4998 25.8114 47.1518C25.4468 47.5961 24.5839 48.4249 22.8732 49.0408ZM31.6826 34.1895V31.9183C31.6826 31.7805 31.6515 31.6444 31.5916 31.5202C31.0025 30.3004 30.7039 29.0061 30.7039 27.6732V25.7157C30.7039 21.9027 33.806 18.8007 37.6188 18.8007H50.4067V27.6733C50.4067 29.0062 50.108 30.3005 49.5189 31.5204C49.459 31.6445 49.4279 31.7806 49.4279 31.9184V34.5249C49.4279 37.004 48.4313 39.3035 46.6217 40.9997C46.3957 41.2114 46.1613 41.4098 45.9188 41.5948C45.9135 41.5984 45.9084 41.6025 45.9031 41.6062C44.2078 42.8933 42.1314 43.5189 39.9629 43.3784C35.3197 43.0778 31.6826 39.0416 31.6826 34.1895ZM36.837 52.6094C36.8307 52.6157 36.8159 52.6307 36.786 52.6276C36.7562 52.6246 36.7445 52.6072 36.7395 52.5996L33.8925 48.3291L34.8087 47.3664L39.1277 50.3186L36.837 52.6094ZM40.5553 49.0767L35.5979 45.6881V43.9793C36.8806 44.6727 38.3168 45.1064 39.8444 45.2052C40.0857 45.2209 40.3256 45.2285 40.5647 45.2285C42.3151 45.2285 43.9997 44.8101 45.5126 44.0159V45.6881L40.5553 49.0767ZM44.371 52.5999C44.366 52.6074 44.3543 52.6249 44.3245 52.6278C44.2946 52.6316 44.28 52.6158 44.2735 52.6096L41.9828 50.319L46.3019 47.3666L47.2182 48.3293L44.371 52.5999ZM61.087 51.8275L59.0095 49.7502C59.0458 49.5855 59.0663 49.4052 59.0662 49.2064L59.0661 48.8201C59.6425 49.0093 60.2501 49.1216 60.8789 49.1404C60.9494 49.1426 61.0193 49.1436 61.0897 49.1436C61.7844 49.1436 62.4626 49.0386 63.108 48.8383V49.2069C63.108 49.3895 63.131 49.5684 63.1742 49.7404L61.087 51.8275ZM64.5391 45.9133C63.5689 46.8548 62.2872 47.3521 60.9339 47.3104C58.2848 47.2309 56.1296 44.8975 56.1296 42.1091V40.3977C56.1296 40.2555 56.0965 40.1154 56.0329 39.9884L55.4674 38.8574C55.2603 38.443 55.1508 37.9792 55.1508 37.5158V37.4613C55.1508 35.2674 56.9357 33.4827 59.1294 33.4827H67.0233V37.2848C67.0233 37.8992 66.878 38.5145 66.6033 39.0641L66.1411 39.9884C66.0775 40.1155 66.0445 40.2555 66.0445 40.3977V42.3553C66.0445 43.7077 65.5099 44.9712 64.5391 45.9133Z" fill="url(#paint0_linear)"/>
<path d="M66.9623 55.1436C66.4567 55.1436 66.0469 55.5534 66.0469 56.059V61.9318C66.0469 62.4374 66.4567 62.8472 66.9623 62.8472C67.4679 62.8472 67.8777 62.4374 67.8777 61.9318V56.059C67.8777 55.5535 67.4679 55.1436 66.9623 55.1436Z" fill="url(#paint1_linear)"/>
<path d="M14.1303 56.3535C13.6247 56.3535 13.2148 56.7634 13.2148 57.2689V61.9317C13.2148 62.4372 13.6247 62.8471 14.1303 62.8471C14.6358 62.8471 15.0457 62.4372 15.0457 61.9317V57.2689C15.0457 56.7635 14.6358 56.3535 14.1303 56.3535Z" fill="url(#paint2_linear)"/>
<path d="M29.7885 57.0996C29.2829 57.0996 28.873 57.5095 28.873 58.015V61.9303C28.873 62.4359 29.2829 62.8457 29.7885 62.8457C30.294 62.8457 30.7039 62.4359 30.7039 61.9303V58.015C30.7039 57.5096 30.294 57.0996 29.7885 57.0996Z" fill="url(#paint3_linear)"/>
<path d="M51.3256 57.0996C50.82 57.0996 50.4102 57.5095 50.4102 58.015V61.9303C50.4102 62.4359 50.82 62.8457 51.3256 62.8457C51.8311 62.8457 52.241 62.4359 52.241 61.9303V58.015C52.241 57.5096 51.8311 57.0996 51.3256 57.0996Z" fill="url(#paint4_linear)"/>
<defs>
<linearGradient id="paint0_linear" x1="41.2592" y1="-2.41187" x2="41.2592" y2="64.1607" gradientUnits="userSpaceOnUse">
<stop stop-color="#0300A0"/>
<stop offset="0.833333" stop-color="#FED3FF"/>
<stop offset="0.979067" stop-color="white"/>
<stop offset="0.979167" stop-color="white"/>
</linearGradient>
<linearGradient id="paint1_linear" x1="66.9833" y1="51.889" x2="66.9833" y2="63.0678" gradientUnits="userSpaceOnUse">
<stop stop-color="#0300A0"/>
<stop offset="0.833333" stop-color="#FED3FF"/>
<stop offset="0.979067" stop-color="white"/>
<stop offset="0.979167" stop-color="white"/>
</linearGradient>
<linearGradient id="paint2_linear" x1="14.1512" y1="53.6102" x2="14.1512" y2="63.033" gradientUnits="userSpaceOnUse">
<stop stop-color="#0300A0"/>
<stop offset="0.833333" stop-color="#FED3FF"/>
<stop offset="0.979067" stop-color="white"/>
<stop offset="0.979167" stop-color="white"/>
</linearGradient>
<linearGradient id="paint3_linear" x1="29.8094" y1="54.6721" x2="29.8094" y2="63.0102" gradientUnits="userSpaceOnUse">
<stop stop-color="#0300A0"/>
<stop offset="0.833333" stop-color="#FED3FF"/>
<stop offset="0.979067" stop-color="white"/>
<stop offset="0.979167" stop-color="white"/>
</linearGradient>
<linearGradient id="paint4_linear" x1="51.3465" y1="54.6721" x2="51.3465" y2="63.0102" gradientUnits="userSpaceOnUse">
<stop stop-color="#0300A0"/>
<stop offset="0.833333" stop-color="#FED3FF"/>
<stop offset="0.979067" stop-color="white"/>
<stop offset="0.979167" stop-color="white"/>
</linearGradient>
</defs>
</svg>
