<svg width="164" height="173" viewBox="0 0 164 173" fill="none" xmlns="http://www.w3.org/2000/svg">
<path d="M52.8107 82.4159C52.3208 82.4159 51.9232 82.0485 51.9232 81.5603V81.5C51.9232 78.3991 52.4007 75.3443 53.3432 72.4209C53.4941 71.9541 53.9946 71.702 54.4596 71.8475C54.9265 71.9984 55.1821 72.499 55.033 72.964C54.1473 75.7117 53.6982 78.5837 53.6982 81.5C53.6982 81.9881 53.3023 82.4159 52.8107 82.4159ZM90.1158 107.94C87.3504 108.839 84.4625 109.298 81.5319 109.302C81.042 109.302 80.6444 109.703 80.6444 110.189C80.6444 110.676 81.042 111.077 81.5319 111.077C84.6488 111.073 87.7249 110.587 90.6661 109.63C91.1329 109.481 91.385 108.979 91.2323 108.512C91.0814 108.047 90.5791 107.79 90.1158 107.94ZM55.0667 90.1407C54.9158 89.6739 54.4206 89.4201 53.9485 89.5727C53.4834 89.7236 53.2278 90.2259 53.3804 90.6909C54.3425 93.6374 55.7607 96.4082 57.5978 98.9252C57.7718 99.1648 58.0416 99.289 58.3149 99.289C58.496 99.289 58.6806 99.2358 58.8368 99.1169C59.2326 98.8275 59.3196 98.272 59.0303 97.8779C57.3068 95.5136 55.9719 92.9097 55.0667 90.1407ZM90.0093 55.0241C92.7837 55.9151 95.3929 57.2358 97.7661 58.9504C97.9241 59.064 98.1051 59.119 98.2844 59.119C98.5595 59.119 98.8311 58.9912 99.0033 58.7516C99.2908 58.354 99.2003 57.7984 98.8062 57.5126C96.2822 55.688 93.5061 54.2822 90.5525 53.3343C90.0857 53.187 89.5887 53.4426 89.436 53.9076C89.2869 54.3744 89.5425 54.875 90.0093 55.0241ZM58.2475 65.5782C58.5226 65.5782 58.7942 65.4504 58.9664 65.2108C60.6792 62.8447 62.7418 60.7715 65.1008 59.0462C65.4966 58.7569 65.5818 58.2014 65.2925 57.8055C65.0049 57.4097 64.4494 57.3245 64.0518 57.6138C61.5437 59.4474 59.3498 61.6537 57.5286 64.1689C57.2411 64.5665 57.3298 65.1203 57.7274 65.4079C57.8854 65.525 58.0682 65.5782 58.2475 65.5782ZM72.5575 55.12C72.6481 55.12 72.7421 55.1058 72.8344 55.0756C75.5963 54.1703 78.4843 53.707 81.4166 53.6999C81.9047 53.6982 82.3041 53.3006 82.3023 52.8107C82.3005 52.3225 81.9011 51.925 81.4148 51.925H81.413C78.2943 51.9338 75.2218 52.4273 72.2824 53.3893C71.8174 53.542 71.5635 54.0425 71.7162 54.5093C71.8369 54.8821 72.183 55.12 72.5575 55.12ZM72.9374 107.958C70.1648 107.06 67.5574 105.736 65.1877 104.016C64.7919 103.725 64.2346 103.817 63.9488 104.209C63.6613 104.61 63.75 105.164 64.1458 105.452C66.6663 107.278 69.4406 108.689 72.3907 109.643C72.4812 109.675 72.5735 109.683 72.6641 109.683C73.0386 109.683 73.3865 109.444 73.5089 109.069C73.6598 108.61 73.4042 108.109 72.9374 107.958ZM104 97.8335C102.282 100.194 100.214 102.264 97.8531 103.984C97.4572 104.273 97.3721 104.829 97.6596 105.225C97.8353 105.463 98.1033 105.59 98.3767 105.59C98.5577 105.59 98.7406 105.535 98.8985 105.42C101.41 103.59 103.608 101.389 105.436 98.8737C105.727 98.4743 105.636 97.9223 105.244 97.6348C104.841 97.3472 104.287 97.4377 104 97.8335ZM110.189 80.5557C109.699 80.5557 109.302 81.0083 109.302 81.5C109.302 84.4323 108.847 87.3238 107.948 90.0892C107.798 90.556 108.054 91.0548 108.519 91.2075C108.61 91.2394 108.702 91.2501 108.789 91.2501C109.163 91.2501 109.511 91.0122 109.636 90.6341C110.592 87.6947 111.077 84.6169 111.077 81.5V81.3864C111.077 80.8965 110.679 80.5557 110.189 80.5557ZM107.916 72.8078C108.038 73.1806 108.386 73.4184 108.76 73.4184C108.855 73.4184 108.945 73.4042 109.037 73.3741C109.502 73.2214 109.754 72.7191 109.602 72.254C108.633 69.3075 107.206 66.5403 105.365 64.0304C105.074 63.6346 104.516 63.5494 104.126 63.8405C103.732 64.1316 103.645 64.6854 103.938 65.0812C105.667 67.4384 107.005 70.0388 107.916 72.8078ZM117 81.5C117 101.073 101.073 117 81.5 117C61.9253 117 46 101.073 46 81.5C46 61.9253 61.9253 46 81.5 46C101.073 46 117 61.9253 117 81.5ZM113.45 81.5C113.45 63.8831 99.1169 49.55 81.5 49.55C63.8831 49.55 49.55 63.8831 49.55 81.5C49.55 99.1169 63.8831 113.45 81.5 113.45C99.1169 113.45 113.45 99.1169 113.45 81.5ZM84.4926 82.952C83.8998 82.7265 82.9946 82.6129 81.7805 82.6129H79.0061V87.2528C79.0168 87.9095 79.0416 88.2929 79.0825 88.4047C79.1339 88.545 79.2174 88.6479 79.3363 88.7029C79.4534 88.7562 79.7729 88.7899 80.293 88.7899H81.855C82.7638 88.7899 83.5182 88.7029 84.1128 88.5308C84.7127 88.3639 85.2222 88.0125 85.6375 87.4782C86.0529 86.9439 86.2659 86.3067 86.2659 85.5576C86.2659 84.924 86.1168 84.3862 85.8221 83.9424C85.5292 83.5111 85.0855 83.1774 84.4926 82.952ZM107.124 81.5C107.124 95.6521 95.6521 107.124 81.5 107.124C67.3497 107.124 55.8779 95.6521 55.8779 81.5C55.8779 67.3497 67.3497 55.8779 81.5 55.8779C95.6521 55.8779 107.124 67.3497 107.124 81.5ZM91.834 86.131C91.834 85.1796 91.6086 84.3187 91.1578 83.5448C90.7069 82.7673 90.0928 82.1692 89.3313 81.7343C88.797 81.4254 88.032 81.1432 87.0256 80.8894C87.961 80.5717 88.7136 80.1705 89.2816 79.6824C89.8514 79.196 90.288 78.6351 90.5915 78.0015C90.8933 77.366 91.0442 76.6951 91.0442 75.9886C91.0442 75.0159 90.7584 74.1213 90.1904 73.3066C89.6153 72.4936 88.797 71.8671 87.732 71.434C87.3167 71.2654 86.8232 71.1376 86.2925 71.0346V67.2521H82.6626V70.779H80.3303V67.2521H76.7004V70.779H71.1642V73.7432H72.0109C72.5735 73.7432 72.9551 73.7965 73.1557 73.8977C73.3563 73.9988 73.4965 74.1391 73.5782 74.3112C73.6616 74.4852 73.7024 74.8917 73.7024 75.5254V87.4782C73.7024 88.1065 73.6634 88.5059 73.5782 88.6852C73.4965 88.8662 73.3563 89.0047 73.1557 89.0988C72.9551 89.1964 72.5753 89.2461 72.0109 89.2461H71.1642V92.2104H76.7004V95.7355H80.3303V92.2104H82.3946C82.4904 92.2104 82.5774 92.2086 82.6644 92.2086V95.7355H86.2943V91.905C86.9031 91.7879 87.4409 91.6406 87.8935 91.4542C89.1449 90.9554 90.1123 90.2277 90.8028 89.2692C91.4897 88.3178 91.834 87.2687 91.834 86.131ZM84.0808 79.1552C84.6719 78.9511 85.1121 78.6405 85.4103 78.2304C85.7067 77.8169 85.8541 77.3358 85.8541 76.7927C85.8541 76.23 85.7138 75.749 85.4334 75.3496C85.1512 74.9502 84.7411 74.6663 84.2122 74.4976C83.6779 74.3272 82.7248 74.242 81.3562 74.242H79.0061V79.4659H81.3562C82.5845 79.4641 83.4916 79.3611 84.0808 79.1552Z" fill="white"/>
<path d="M160.755 119.734L149.152 115.084C154.258 104.854 157.042 93.4622 157.042 81.605V15.8095H157.274C160.523 14.8796 163.076 11.6247 163.076 8.13725C163.076 3.71989 159.363 0 154.954 0C150.545 0 146.832 3.71989 146.832 8.13725C146.832 11.8571 149.385 14.8796 152.633 15.8095V55.5658C141.959 26.5042 114.112 5.57983 81.3928 5.57983C39.6232 5.57983 5.51127 39.7563 5.51127 81.605C5.51127 93.4622 8.29592 104.854 13.169 114.852L1.56636 119.036C0.870201 119.269 0.406094 119.734 0.17404 120.431C-0.0580134 121.129 -0.0580134 121.826 0.17404 122.291C15.7216 153.213 46.8168 172.51 81.3928 172.51C115.505 172.51 146.6 153.445 162.147 122.989C162.38 122.524 162.38 121.826 162.147 121.129C161.915 120.431 161.451 119.966 160.755 119.734ZM151.473 8.13725C151.473 6.27731 153.097 4.64986 154.954 4.64986C156.81 4.64986 158.435 6.27731 158.435 8.13725C158.435 9.9972 156.81 11.6247 154.954 11.6247C153.097 11.6247 151.473 9.9972 151.473 8.13725ZM10.1523 81.8375C10.1523 42.5462 42.1757 10.4622 81.3928 10.4622C120.61 10.4622 152.633 42.5462 152.633 81.8375C152.633 121.129 120.61 153.213 81.3928 153.213C42.1757 153.213 10.1523 121.129 10.1523 81.8375ZM81.3928 168.092C49.3694 168.092 20.5948 150.888 5.51127 122.756L15.2575 119.269C28.2525 142.286 53.0823 157.863 81.3928 157.863C109.471 157.863 134.301 142.286 147.296 119.501L156.81 123.454C141.727 150.888 112.952 168.092 81.3928 168.092Z" fill="url(#paint0_linear)"/>
<defs>
<linearGradient id="paint0_linear" x1="81.5378" y1="0" x2="81.5378" y2="172.51" gradientUnits="userSpaceOnUse">
<stop stop-color="#1D18FF"/>
<stop offset="1" stop-color="#FED3FF"/>
</linearGradient>
</defs>
</svg>
