<svg width="163" height="172" viewBox="0 0 163 172" fill="none" xmlns="http://www.w3.org/2000/svg">
<path d="M160.105 119.249L148.549 114.618C153.634 104.43 156.407 93.0841 156.407 81.2749V15.7456H156.638C159.874 14.8194 162.416 11.5776 162.416 8.10433C162.416 3.70484 158.718 0 154.327 0C149.936 0 146.238 3.70484 146.238 8.10433C146.238 11.8092 148.78 14.8194 152.016 15.7456V55.341C141.384 26.397 113.651 5.55726 81.0635 5.55726C39.4628 5.55726 5.48898 39.5955 5.48898 81.2749C5.48898 93.0841 8.26235 104.43 13.1158 114.387L1.56002 118.555C0.86668 118.786 0.404451 119.249 0.173336 119.944C-0.0577787 120.639 -0.0577787 121.333 0.173336 121.797C15.658 152.593 46.6274 171.812 81.0635 171.812C115.037 171.812 146.007 152.825 161.491 122.491C161.723 122.028 161.723 121.333 161.491 120.639C161.26 119.944 160.798 119.481 160.105 119.249ZM150.86 8.10433C150.86 6.25191 152.478 4.63105 154.327 4.63105C156.176 4.63105 157.794 6.25191 157.794 8.10433C157.794 9.95675 156.176 11.5776 154.327 11.5776C152.478 11.5776 150.86 9.95675 150.86 8.10433ZM10.1113 81.5064C10.1113 42.3741 42.0051 10.4199 81.0635 10.4199C120.122 10.4199 152.016 42.3741 152.016 81.5064C152.016 120.639 120.122 152.593 81.0635 152.593C42.0051 152.593 10.1113 120.639 10.1113 81.5064ZM81.0635 167.412C49.1697 167.412 20.5114 150.277 5.48898 122.26L15.1958 118.786C28.1382 141.71 52.8675 157.224 81.0635 157.224C109.028 157.224 133.758 141.71 146.7 119.018L156.176 122.954C141.153 150.277 112.495 167.412 81.0635 167.412Z" fill="url(#paint0_linear)"/>
<path d="M96.2189 110.058C97.0475 110.058 97.7191 109.386 97.7191 108.558C97.7191 107.729 97.0475 107.058 96.2189 107.058C95.3904 107.058 94.7188 107.729 94.7188 108.558C94.7188 109.386 95.3904 110.058 96.2189 110.058Z" fill="white"/>
<path d="M100.326 104.426C101.062 104.807 101.967 104.518 102.347 103.781C104.086 100.411 105.006 96.6162 105.006 92.8064C105.006 81.1949 96.7438 71.5232 85.8218 69.2899C85.8118 69.2878 85.7831 69.2824 85.7788 69.2816C84.7013 69.0635 83.6047 68.9208 82.5031 68.8521V59.5024C82.5031 57.848 83.8491 56.502 85.5035 56.502C93.7756 56.502 100.505 49.7723 100.505 41.5002C100.505 40.6718 99.8335 40 99.0051 40H94.5046C88.5739 40 83.4362 43.4594 81.0029 48.4663C78.5696 43.4594 73.432 40 67.5013 40H63.0007C62.1723 40 61.5005 40.6718 61.5005 41.5002C61.5005 49.7723 68.2302 56.502 76.5024 56.502C78.1568 56.502 79.5027 57.848 79.5027 59.5024V68.8523C66.7404 69.6468 57 80.2664 57 92.8064C57 106.042 67.7676 116.809 81.0029 116.809C84.9691 116.809 88.9026 115.817 92.3782 113.939C93.107 113.545 93.3787 112.635 92.9849 111.906C92.5909 111.177 91.6809 110.906 90.9518 111.299C88.1807 112.797 85.0753 113.648 81.9183 113.786C82.3354 113.567 82.6342 113.161 82.7058 112.679C83.0603 110.291 84.068 109.413 85.5932 108.084C86.6118 107.196 87.7662 106.19 88.9018 104.59C90.1488 102.835 90.6296 100.699 90.2556 98.5751L89.6915 95.3767C89.5477 94.5609 88.7695 94.0159 87.9542 94.1598L85.1328 94.6565C83.4917 94.9463 81.8543 94.2943 80.8606 92.9556C78.832 90.2195 75.2893 89.2611 72.1754 90.5085C72.1663 90.5026 72.1574 90.4968 72.1484 90.4909C71.0281 89.751 70.3899 88.6928 70.3516 87.5108C70.3266 86.7373 70.5576 85.9712 70.9919 85.3046C71.1418 85.5766 71.3881 85.8369 71.8091 85.9782C72.3347 86.1548 72.9085 86.0252 73.3068 85.656C73.9498 85.0595 73.7956 84.3303 73.6795 83.8685C73.6322 83.2531 73.2138 82.4844 73.8052 81.6394C74.073 81.2568 74.4738 81.0015 74.9327 80.9203L76.8641 80.581C78.9237 80.2162 83.611 75.3898 86.0924 72.4295C89.0496 73.1672 91.8011 74.5426 94.1772 76.463C90.3321 78.7187 90.4484 78.5886 90.2072 78.8295C89.3226 79.7118 88.8034 80.9355 88.8034 82.1868V84.089C88.8034 86.7071 90.9454 88.8371 93.5635 88.8371C94.5272 88.8371 95.3111 89.6205 95.3111 90.5833C95.3111 91.3072 95.8279 91.9278 96.5399 92.0588L102.001 93.063C101.962 96.3503 101.184 99.4925 99.6802 102.405C99.3008 103.142 99.5896 104.046 100.326 104.426ZM76.5024 53.5016C70.3927 53.5016 65.335 48.9123 64.5942 43.0004H67.5013C73.8817 43.0004 79.1154 48.0048 79.4822 54.2951C78.6038 53.7906 77.5861 53.5016 76.5024 53.5016ZM94.5046 42.9989H97.4116C96.6708 48.9108 91.6131 53.5016 85.5035 53.5016C84.4197 53.5016 83.402 53.7906 82.5237 54.2951C82.8905 48.0048 88.1241 42.9989 94.5046 42.9989ZM78.4511 94.7432C80.1268 97.001 82.8878 98.0995 85.6539 97.6112L86.9974 97.3748L87.3008 99.096C87.5344 100.422 87.2342 101.757 86.4552 102.854C85.5261 104.163 84.5581 105.006 83.6221 105.822C82.6038 106.709 81.5638 107.615 80.7941 108.992C79.771 107.64 79.0863 107.341 78.6437 107.026C78.6049 106.951 78.4951 106.682 78.3487 105.853C78.0722 104.281 77.1997 102.912 75.8927 101.998L74.8768 101.286C76.2778 99.189 76.2148 96.4415 74.7067 94.4089L73.7624 93.1362C75.4934 92.659 77.3501 93.2586 78.4511 94.7432ZM72.2974 96.1967C73.061 97.2257 73.08 98.6233 72.346 99.6725L71.5599 100.793C71.084 101.472 71.2486 102.408 71.9273 102.883L74.1726 104.456C74.8228 104.911 75.2566 105.591 75.3942 106.374C75.7628 108.46 76.2326 109.056 77.2145 109.675C77.5335 109.876 77.863 110.084 78.424 110.831L79.9528 113.259C80.1046 113.5 80.3184 113.684 80.5628 113.804C69.1843 113.568 60.0004 104.24 60.0004 92.8064C60.0004 91.3099 60.1622 89.8182 60.4777 88.3618C60.9563 89.0029 61.6012 89.5327 62.3785 89.8731L70.1298 93.2745L72.2974 96.1967ZM76.2943 77.6348L74.4126 77.9654C73.1636 78.1861 72.075 78.8796 71.3478 79.9187C70.9913 80.4278 70.7432 80.9904 70.6082 81.5783C70.4653 81.6425 70.3269 81.7238 70.1958 81.8235C68.3439 83.2266 67.2812 85.3889 67.3532 87.608C67.367 88.0311 67.4224 88.4469 67.517 88.8515L63.5831 87.1253C62.7706 86.7694 62.344 85.873 62.6122 85.0843C62.9058 84.2191 62.9517 83.2963 62.7546 82.4205C66.5022 75.8568 73.438 71.8039 81.0029 71.8039C81.5416 71.8039 82.0808 71.8249 82.6182 71.8661C79.9872 74.8005 77.1343 77.313 76.2943 77.6348ZM93.564 85.8366C92.6002 85.8366 91.8042 85.0524 91.8042 84.0889V82.1866C91.8042 81.7816 91.9604 81.3848 92.2162 81.0749L96.4631 78.6045C99.3821 81.779 101.239 85.7322 101.813 89.9776L98.1362 89.3014C97.5755 87.3047 95.738 85.8366 93.564 85.8366Z" fill="white"/>
<defs>
<linearGradient id="paint0_linear" x1="81.2079" y1="0" x2="81.2079" y2="171.812" gradientUnits="userSpaceOnUse">
<stop stop-color="#1D18FF"/>
<stop offset="1" stop-color="#FED3FF"/>
</linearGradient>
</defs>
</svg>
