<svg width="71" height="70" viewBox="0 0 71 70" fill="none" xmlns="http://www.w3.org/2000/svg">
<path d="M49.2053 23.2723C45.1161 21.0544 39.9599 19.833 34.6865 19.833C23.5756 19.833 13.457 25.5018 13.457 31.726C13.457 43.1806 22.9804 52.4997 34.6865 52.4997C46.3927 52.4997 55.916 43.1808 55.916 31.726C55.916 28.6667 53.4703 25.5856 49.2053 23.2723ZM34.6863 48.1625C25.4243 48.1625 17.8894 40.7893 17.8894 31.7262C17.8894 30.6273 19.2599 28.7705 22.3215 27.0993C25.7315 25.238 30.2383 24.1704 34.6863 24.1704C39.1549 24.1704 43.6636 25.2258 47.0563 27.0661C50.1145 28.7248 51.4832 30.6016 51.4832 31.7262C51.4835 40.7893 43.9485 48.1625 34.6863 48.1625Z" fill="url(#paint0_linear)"/>
<path d="M66.5381 23.2419V11.558C68.853 10.7437 70.5173 8.53665 70.5173 5.94707C70.5173 2.66792 67.8493 0 64.5701 0C61.2907 0 58.6227 2.66792 58.6227 5.94707C58.6227 8.47461 60.2084 10.6375 62.4365 11.497V23.2419H61.5986C57.4295 13.1099 47.452 5.95734 35.8341 5.95734C24.216 5.95734 14.2384 13.1099 10.0694 23.2419H0.833984V40.7415H8.86154C9.63574 43.7504 10.9031 46.563 12.5695 49.0905V61.8894L13.1362 62.4836C13.4257 62.7873 20.3359 69.8464 35.5874 69.9967V70C35.6704 70 35.7517 69.9985 35.8341 69.9983C35.9167 69.9985 35.9978 70 36.0808 70V69.9964C51.3323 69.8464 58.2425 62.7871 58.5322 62.4834L59.0989 61.8892V49.0903C60.7653 46.5628 62.0327 43.7504 62.8069 40.7415H70.834V23.2419H66.5381ZM8.13008 36.6398H4.93559V27.3434H8.7448C8.25018 29.4176 7.98652 31.5805 7.98652 33.8041C7.98673 34.7613 8.03535 35.7073 8.13008 36.6398ZM54.9971 60.1543C54.2818 60.743 52.8931 61.7603 50.7939 62.7682C47.8542 64.1799 42.8827 65.8581 35.8341 65.8968C28.7853 65.8581 23.814 64.1799 20.8741 62.7682C18.7726 61.7591 17.3831 60.7409 16.6709 60.1547V53.9905C21.667 58.7352 28.4163 61.6511 35.8341 61.6511C43.2519 61.6511 50.001 58.7352 54.9971 53.9905V60.1543ZM35.8341 57.5496C22.7405 57.5496 12.0881 46.8975 12.0881 33.8041C12.0881 24.2397 17.7729 15.9793 25.9402 12.2205V16.445H30.0418V10.7746C31.2549 10.4694 32.5046 10.2584 33.7829 10.1483V16.4452H37.8845V10.1485C39.1629 10.2584 40.4127 10.4696 41.6256 10.7748V16.4452H45.7271V12.2207C53.8947 15.9793 59.5793 24.2399 59.5793 33.8043C59.5799 46.8975 48.9275 57.5496 35.8341 57.5496ZM62.7245 5.94707C62.7245 4.92934 63.5524 4.1015 64.5701 4.1015C65.5879 4.1015 66.4159 4.92934 66.4159 5.94707C66.4159 6.96479 65.5879 7.79284 64.5701 7.79284C63.5524 7.79284 62.7245 6.96479 62.7245 5.94707ZM66.7326 36.64H63.5381C63.6328 35.7073 63.6815 34.7615 63.6815 33.8043C63.6815 31.5807 63.4178 29.4178 62.9232 27.3434H66.7324V36.64H66.7326Z" fill="url(#paint1_linear)"/>
<defs>
<linearGradient id="paint0_linear" x1="35.1727" y1="6.03251" x2="35.1727" y2="53.435" gradientUnits="userSpaceOnUse">
<stop stop-color="#0300A0"/>
<stop offset="0.833333" stop-color="#FED3FF"/>
<stop offset="0.979067" stop-color="white"/>
<stop offset="0.979167" stop-color="white"/>
</linearGradient>
<linearGradient id="paint1_linear" x1="36.6355" y1="-29.5725" x2="36.6355" y2="72.0042" gradientUnits="userSpaceOnUse">
<stop stop-color="#0300A0"/>
<stop offset="0.833333" stop-color="#FED3FF"/>
<stop offset="0.979067" stop-color="white"/>
<stop offset="0.979167" stop-color="white"/>
</linearGradient>
</defs>
</svg>
