<svg width="574" height="113" viewBox="0 0 574 113" fill="none" xmlns="http://www.w3.org/2000/svg">
<path d="M239.44 39.113C243.964 39.113 247.644 35.1786 247.644 30.3427C247.644 25.5068 243.964 21.5723 239.44 21.5723C234.916 21.5723 231.236 25.5068 231.236 30.3427C231.236 35.1786 234.916 39.113 239.44 39.113ZM239.44 24.9029C242.245 24.9029 244.528 27.3432 244.528 30.3427C244.528 33.3421 242.245 35.7825 239.44 35.7825C236.635 35.7825 234.352 33.3421 234.352 30.3427C234.352 27.3432 236.635 24.9029 239.44 24.9029Z" fill="white"/>
<path d="M277.937 111.061L273.751 84.2146C273.187 80.5984 271.802 77.1368 269.744 74.2045L253.035 50.3861V27.8495C253.035 23.4303 251.835 14.2198 243.808 2.1846C242.894 0.816646 241.413 0 239.846 0C238.278 0 236.797 0.816646 235.884 2.1846C227.857 14.2198 226.657 23.4303 226.657 27.8495V50.3861L209.948 74.2045C207.89 77.1371 206.505 80.5986 205.94 84.2146L201.756 111.061C201.649 111.742 201.946 112.422 202.504 112.771C202.748 112.925 203.02 113 203.292 113C203.637 113 203.982 112.877 204.265 112.635L227.912 92.4113L228.051 94.0441C228.24 96.2817 229.704 98.0604 231.642 98.61V104.23C231.642 105.149 232.34 105.895 233.2 105.895H238.288V111.335C238.288 112.254 238.986 113 239.846 113C240.706 113 241.404 112.254 241.404 111.335V105.895H246.492C247.352 105.895 248.05 105.149 248.05 104.23V98.61C249.987 98.0604 251.451 96.2817 251.641 94.0444L251.78 92.4113L275.427 112.635C275.709 112.877 276.055 113 276.4 113C276.672 113 276.944 112.925 277.188 112.771C277.745 112.422 278.043 111.742 277.937 111.061ZM238.421 4.11831C238.755 3.61762 239.274 3.33052 239.846 3.33052C240.418 3.33052 240.936 3.61762 241.271 4.11831C242.577 6.07733 244.243 8.80281 245.762 11.9739H233.93C235.449 8.80281 237.115 6.07733 238.421 4.11831ZM232.47 15.3045H247.222C248.773 19.2061 249.919 23.5433 249.919 27.8495V75.9201H241.404V50.9412C241.404 50.0215 240.706 49.2759 239.846 49.2759C238.986 49.2759 238.288 50.0215 238.288 50.9412V75.9201H229.773V27.8495C229.773 23.5433 230.918 19.2061 232.47 15.3045ZM227.242 88.7191L205.497 107.316L209.013 84.7622C209.496 81.6701 210.68 78.7102 212.439 76.2028L226.657 55.9369V77.5854C226.657 77.6358 226.659 77.686 226.663 77.7361L226.665 77.7554V77.7557L227.579 88.5008C227.461 88.5575 227.347 88.6288 227.242 88.7191ZM229.92 79.2507H238.288V95.4593H232.911C231.992 95.4593 231.236 94.7214 231.153 93.7429L229.92 79.2507ZM234.758 102.564V98.7897H238.288V102.564H234.758ZM241.404 102.564V98.7897H244.934V102.564H241.404ZM246.781 95.4593H241.404V79.2507H249.77L248.539 93.7429C248.456 94.7214 247.7 95.4593 246.781 95.4593ZM252.45 88.7191C252.344 88.6288 252.231 88.5577 252.113 88.5011L253.026 77.7559V77.7557L253.028 77.7363C253.032 77.6861 253.035 77.6358 253.035 77.5856V55.9371L267.252 76.2029C269.012 78.7104 270.196 81.6704 270.679 84.7624L274.195 107.316L252.45 88.7191Z" fill="white"/>
<path fill-rule="evenodd" clip-rule="evenodd" d="M16.5285 44.9501H16.0651C15.9527 44.6116 15.7702 44.2291 15.5174 43.8024C15.2787 43.3757 14.9557 42.9785 14.5484 42.6106C14.1552 42.228 13.6707 41.9117 13.0951 41.6615C12.5333 41.4114 11.8663 41.2863 11.0939 41.2863C10.4058 41.2863 9.79492 41.3967 9.26129 41.6174C8.72765 41.8382 8.27828 42.1472 7.91317 42.5444C7.5621 42.9417 7.29528 43.4125 7.11272 43.9569C6.93016 44.5013 6.83888 45.1045 6.83888 45.7667C6.83888 46.826 7.11974 47.8412 7.68146 48.8124C8.25722 49.7688 8.97341 50.7177 9.83003 51.6594C10.6653 52.5776 11.5674 53.4958 12.5362 54.4141L6.70796 54.4397C6.18203 53.8445 5.69906 53.2194 5.25905 52.5643C4.73947 51.755 4.31818 50.8944 3.9952 49.9821C3.67221 49.0551 3.51071 48.0399 3.51071 46.9363C3.51071 45.774 3.72135 44.7293 4.14264 43.8024C4.57797 42.8607 5.14671 42.0588 5.84886 41.3967C6.56505 40.7347 7.37252 40.227 8.27127 39.8738C9.17001 39.5208 10.0968 39.3441 11.0518 39.3441C11.7539 39.3441 12.3999 39.403 12.9897 39.5208C13.5795 39.6384 14.1061 39.7782 14.5695 39.94C15.047 40.102 15.4613 40.2638 15.8123 40.4257C16.1634 40.5875 16.4512 40.7198 16.6759 40.8229L16.5285 44.9501ZM12.2191 60.0121C12.4768 60.3135 12.7196 60.6191 12.9475 60.9289C13.4812 61.6351 13.9094 62.3856 14.2325 63.1801C14.5555 63.9599 14.717 64.8133 14.717 65.7403C14.717 66.4024 14.6046 67.0129 14.3799 67.5722C14.1692 68.1313 13.8603 68.6168 13.4531 69.0287C13.0458 69.426 12.5544 69.7424 11.9786 69.9778C11.4169 70.1985 10.7779 70.3088 10.0617 70.3088C9.27534 70.3088 8.55212 70.169 7.8921 69.8895C7.23209 69.5952 6.64228 69.2127 6.1227 68.7418C5.61715 68.2563 5.18884 67.7045 4.83777 67.0865C4.48669 66.4538 4.23391 65.7918 4.07945 65.1002H3.55284L3.06836 69.9778C3.3773 70.1985 3.77051 70.4412 4.24796 70.7062C4.73947 70.971 5.28714 71.2211 5.89099 71.4565C6.50887 71.6772 7.17591 71.8611 7.8921 72.0083C8.62233 72.1701 9.38768 72.251 10.1881 72.251C11.6205 72.251 12.8562 72.0156 13.8954 71.5447C14.9346 71.0592 15.7842 70.434 16.4443 69.6688C17.1043 68.9037 17.5888 68.043 17.8977 67.0865C18.2207 66.1155 18.3822 65.1517 18.3822 64.1953C18.3822 62.9153 18.0943 61.7235 17.5186 60.6199C17.4122 60.4082 17.3006 60.1983 17.1837 59.9903L12.2191 60.0121ZM43.6822 57.7465C44.5089 57.8078 45.2866 57.7725 46.0153 57.6405C47.1668 57.4197 48.1498 56.9636 48.9643 56.2722C49.7928 55.5659 50.4318 54.6168 50.8812 53.4251C51.3446 52.2333 51.5763 50.7766 51.5763 49.0551C51.5763 47.8633 51.457 46.7819 51.2183 45.8107C50.9794 44.825 50.6214 43.9937 50.144 43.3168C49.6804 42.6253 49.0907 42.0956 48.3745 41.7278C47.6582 41.3452 46.8228 41.1539 45.8678 41.1539C45.264 41.1539 44.7373 41.1834 44.2879 41.2423C43.8386 41.2863 43.4594 41.3378 43.1505 41.3967C42.7854 41.4703 42.4835 41.5513 42.2448 41.6395V55.6779L38.4111 55.6948V48.5696C38.4111 47.3189 38.397 46.2301 38.3689 45.3031C38.3409 44.3615 38.2987 43.5522 38.2425 42.8754C38.1864 42.1839 38.1162 41.61 38.0318 41.1539C37.9617 40.6979 37.8844 40.3153 37.8002 40.0063V39.918C38.0811 39.9474 38.376 39.9768 38.6849 40.0063C38.9517 40.0357 39.2466 40.0578 39.5695 40.0725H40.6018C41.1494 40.0725 41.8866 40.0063 42.8135 39.8738C43.7543 39.7267 44.948 39.6531 46.3945 39.6531C47.7426 39.6531 48.9854 39.8592 50.1229 40.2711C51.2743 40.683 52.2715 41.2863 53.114 42.0809C53.9566 42.8754 54.6095 43.8465 55.0729 44.9941C55.5504 46.1271 55.7892 47.4219 55.7892 48.8786C55.7892 50.8355 55.4171 52.5275 54.6728 53.9548C53.9285 55.382 52.9314 56.537 51.6816 57.4197C50.4318 58.3025 48.9924 58.9058 47.3635 59.2295C46.1794 59.4541 44.9546 59.5232 43.689 59.4369L43.6822 57.7465ZM42.2448 61.3265L38.4111 61.3435V62.9374C38.4111 64.1879 38.397 65.2842 38.3689 66.2258C38.3409 67.1528 38.2987 67.9546 38.2425 68.6315C38.1864 69.3083 38.1162 69.8747 38.0318 70.3309C37.9617 70.787 37.8844 71.1696 37.8002 71.4786V71.5668H42.8556V71.4786C42.7713 71.1696 42.6871 70.787 42.6029 70.3309C42.5326 69.8747 42.4695 69.3083 42.4133 68.6315C42.3711 67.9546 42.329 67.1528 42.2869 66.2258C42.2588 65.2842 42.2448 64.1879 42.2448 62.9374V61.3265ZM93.9966 71.5668V71.4786C94.0246 71.405 94.0457 71.2946 94.0597 71.1475C94.0739 71.0003 94.0808 70.868 94.0808 70.7502C94.0808 70.2941 94.0177 69.7939 93.8913 69.2495C93.779 68.6904 93.5543 67.9988 93.2172 67.1749L90.6685 61.1717C90.5362 61.1668 90.3965 61.1622 90.2495 61.1581L89.2892 59.1531C89.4662 59.1492 89.6381 59.1452 89.8048 59.1412L83.8857 45.1266L78.0719 59.2295H78.4322L77.6349 61.1606C77.519 61.164 77.4049 61.1677 77.2926 61.1717L74.8702 66.9983C74.6595 67.5427 74.4348 68.1385 74.1961 68.786C73.9574 69.4334 73.8379 70.0882 73.8379 70.7502C73.8379 70.9416 73.8521 71.1034 73.8801 71.2358C73.9081 71.3535 73.9363 71.4344 73.9643 71.4786V71.5668H69.6673V71.4786C69.92 71.199 70.236 70.7062 70.6151 69.9999C70.9943 69.2788 71.4085 68.3814 71.8579 67.3072L83.9279 39.2559H85.613L97.0509 66.2258C97.3178 66.8585 97.5916 67.4765 97.8725 68.0798C98.1674 68.6683 98.4412 69.198 98.6939 69.6688C98.9468 70.1397 99.1715 70.5369 99.368 70.8606C99.5646 71.1843 99.698 71.3903 99.7682 71.4786V71.5668H93.9966ZM141.051 44.7735L140.862 44.8618C139.767 43.8024 138.446 42.9564 136.901 42.3237C135.371 41.691 133.685 41.3746 131.846 41.3746C130.077 41.3746 128.454 41.6689 126.98 42.2574C125.505 42.8313 124.235 43.6699 123.167 44.7735C122.114 45.877 121.293 47.2306 120.702 48.8344C120.397 49.6659 120.17 50.5567 120.023 51.5068L115.872 51.5251C116.222 50.2205 116.716 48.9779 117.354 47.7972C118.014 46.5759 118.828 45.4577 119.797 44.4424C120.766 43.4125 121.868 42.5223 123.104 41.7719C124.354 41.0215 125.723 40.4404 127.212 40.0284C128.714 39.6016 130.336 39.3883 132.078 39.3883C134.788 39.3883 137.302 39.8224 139.619 40.6905L141.051 44.7735ZM115.803 60.0348L120.497 60.0141C120.548 60.2176 120.603 60.4195 120.66 60.6199C121.223 62.5621 122.058 64.2468 123.167 65.674C124.277 67.1013 125.66 68.2268 127.317 69.0508C128.988 69.86 130.933 70.2647 133.152 70.2647C133.952 70.2647 134.753 70.1764 135.553 69.9999C136.354 69.8232 137.12 69.5657 137.849 69.2274C138.594 68.8743 139.289 68.4549 139.934 67.9694C140.595 67.4691 141.191 66.9027 141.725 66.2699L141.957 66.4245L140.271 70.9268C139.219 71.3535 138.053 71.6772 136.774 71.8979C135.511 72.1333 134.233 72.251 132.941 72.251C130.343 72.251 127.963 71.8611 125.8 71.0813C123.652 70.2868 121.798 69.1685 120.24 67.7266C118.695 66.2847 117.487 64.5558 116.616 62.54C116.279 61.7393 116.007 60.9042 115.803 60.0348ZM160.047 39.918C161.803 39.918 163.544 39.9106 165.272 39.8959C167.013 39.8813 168.607 39.8666 170.053 39.8517C171.5 39.8224 172.735 39.7856 173.761 39.7414C174.785 39.6973 175.481 39.6384 175.846 39.5649L174.814 42.5002C174.35 42.3678 173.81 42.2501 173.192 42.1472C172.658 42.0588 172.005 41.9779 171.232 41.9043C170.475 41.8161 169.597 41.7719 168.6 41.7719C168.263 41.7719 167.856 41.7866 167.379 41.8161C166.915 41.8308 166.465 41.8529 166.03 41.8822C165.525 41.9117 165.012 41.9411 164.492 41.9705V50.7897L160.658 50.8066V48.5696C160.658 47.3189 160.645 46.2301 160.616 45.3031C160.589 44.3615 160.547 43.5522 160.491 42.8754C160.434 42.1839 160.364 41.61 160.28 41.1539C160.209 40.6979 160.132 40.3153 160.047 40.0063V39.918ZM165.215 55.795L165.208 54.0111C166.373 53.9906 167.44 53.9497 168.41 53.8885C169.576 53.8149 170.566 53.7413 171.381 53.6678C172.335 53.5795 173.179 53.4765 173.908 53.3588L173.255 56.5591C172.286 56.4266 171.296 56.3015 170.285 56.1838C169.415 56.0808 168.467 55.9925 167.441 55.919C166.676 55.8531 165.934 55.8117 165.215 55.795ZM160.658 59.0734L164.492 59.0565V69.6246C166.149 69.6246 167.673 69.5511 169.063 69.4039C170.454 69.2569 171.669 69.0876 172.708 68.8963C173.915 68.6904 175.018 68.4475 176.015 68.1681L175.404 71.7434C175.235 71.7287 174.982 71.714 174.645 71.6993C174.309 71.6846 173.929 71.6698 173.508 71.6551C173.101 71.6404 172.666 71.6257 172.202 71.611C171.753 71.611 171.325 71.6036 170.917 71.5889C170.51 71.5889 170.144 71.5815 169.822 71.5668H169.147H160.047V71.4786C160.132 71.1696 160.209 70.787 160.28 70.3309C160.364 69.8747 160.434 69.3083 160.491 68.6315C160.547 67.9546 160.589 67.1528 160.616 66.2258C160.645 65.2842 160.658 64.1879 160.658 62.9374V59.0734ZM308.387 66.9983C308.387 68.9847 308.191 70.7062 307.798 72.1627C307.419 73.6194 306.877 74.9069 306.175 76.0251C305.487 77.158 304.666 78.1659 303.711 79.0487C302.771 79.9315 301.738 80.7996 300.615 81.653L300.235 81.1013C301.204 80.1743 301.97 79.2105 302.531 78.21C303.107 77.2094 303.542 76.1354 303.837 74.9877C304.146 73.8548 304.343 72.6336 304.427 71.324C304.512 69.9999 304.554 68.5579 304.554 66.9983V48.5696C304.554 47.3189 304.539 46.2301 304.512 45.3031C304.483 44.3615 304.441 43.5522 304.385 42.8754C304.329 42.1839 304.259 41.61 304.175 41.1539C304.104 40.6979 304.027 40.3153 303.943 40.0063V39.918H308.998V40.0063C308.915 40.3153 308.829 40.6979 308.746 41.1539C308.675 41.61 308.613 42.1839 308.556 42.8754C308.5 43.5522 308.458 44.3615 308.429 45.3031C308.402 46.2301 308.387 47.3189 308.387 48.5696V66.9983ZM342.867 39.3883C345.212 39.3883 347.374 39.793 349.355 40.6022C351.349 41.3967 353.068 42.5223 354.515 43.9789C355.961 45.4209 357.092 47.1571 357.907 49.1876C358.721 51.218 359.128 53.4619 359.128 55.919C359.128 57.3168 358.974 58.6925 358.664 60.0461C358.356 61.3997 357.9 62.6799 357.296 63.8864C356.706 65.0929 355.975 66.2111 355.105 67.2411C354.234 68.2563 353.237 69.1391 352.114 69.8895C351.005 70.6252 349.775 71.199 348.427 71.611C347.079 72.0377 345.625 72.251 344.068 72.251C341.722 72.251 339.552 71.8611 337.558 71.0813C335.579 70.2868 333.865 69.1685 332.419 67.7266C331.757 67.0674 330.992 65.927 330.356 64.8831L334.725 64.8638C334.889 65.1425 335.061 65.4126 335.241 65.674C336.224 67.1013 337.453 68.2268 338.928 69.0508C340.402 69.86 342.115 70.2647 344.068 70.2647C345.625 70.2647 347.051 69.9704 348.343 69.3819C349.635 68.7933 350.745 67.9399 351.671 66.8217C352.613 65.7035 353.343 64.3425 353.863 62.7388C354.382 61.1202 354.642 59.2884 354.642 57.2432C354.642 54.9773 354.389 52.8807 353.883 50.9531C353.392 49.011 352.655 47.3336 351.671 45.9211C350.688 44.4939 349.46 43.383 347.985 42.5885C346.524 41.7793 344.819 41.3746 342.867 41.3746C341.308 41.3746 339.882 41.6689 338.59 42.2574C337.298 42.8313 336.183 43.6699 335.241 44.7735C334.314 45.877 333.591 47.2306 333.072 48.8344C332.712 49.9433 332.477 51.1577 332.367 52.4776L328.098 52.4964C328.148 52.2165 328.205 51.9375 328.269 51.6594C328.578 50.3058 329.027 49.0183 329.617 47.7972C330.221 46.5759 330.951 45.4577 331.807 44.4424C332.679 43.4125 333.668 42.5223 334.778 41.7719C335.901 41.0215 337.136 40.4404 338.485 40.0284C339.847 39.6016 341.308 39.3883 342.867 39.3883ZM399.737 48.5696C399.737 47.3189 399.723 46.2301 399.695 45.3031C399.666 44.3615 399.625 43.5522 399.568 42.8754C399.512 42.1839 399.45 41.61 399.379 41.1539C399.308 40.6979 399.231 40.3153 399.148 40.0063V39.918H402.897V40.0063C402.812 40.3153 402.728 40.6979 402.644 41.1539C402.574 41.61 402.51 42.1839 402.454 42.8754C402.412 43.5522 402.37 44.3615 402.328 45.3031C402.3 46.2301 402.286 47.3189 402.286 48.5696V60.4876C402.286 62.5916 401.998 64.3866 401.422 65.8726C400.847 67.3587 400.046 68.58 399.021 69.5364C397.996 70.478 396.766 71.1622 395.334 71.5889C393.902 72.0303 392.336 72.251 390.637 72.251C388.938 72.251 387.351 72.0451 385.876 71.633C384.417 71.2211 383.138 70.559 382.043 69.6467C380.962 68.7197 380.112 67.528 379.494 66.0713C378.877 64.6 378.567 62.8122 378.567 60.7083V57.5908L382.401 57.5739V60.951C382.401 62.702 382.647 64.1513 383.138 65.2989C383.644 66.4319 384.304 67.3367 385.119 68.0135C385.932 68.6757 386.86 69.1391 387.899 69.4039C388.938 69.6688 389.998 69.8013 391.079 69.8013C392.161 69.8013 393.221 69.6688 394.261 69.4039C395.3 69.1391 396.219 68.6757 397.019 68.0135C397.834 67.3367 398.487 66.4319 398.979 65.2989C399.484 64.1513 399.737 62.702 399.737 60.951V48.5696ZM378.523 45.2306C378.495 44.3198 378.453 43.5348 378.398 42.8754C378.342 42.1839 378.273 41.61 378.188 41.1539C378.118 40.6979 378.04 40.3153 377.956 40.0063V39.918H383.012V40.0063C382.928 40.3153 382.843 40.6979 382.759 41.1539C382.689 41.61 382.626 42.1839 382.57 42.8754C382.515 43.5306 382.474 44.3099 382.446 45.2133L378.523 45.2306ZM427.433 62.9374C427.433 64.1879 427.447 65.2842 427.475 66.2258C427.518 67.1528 427.56 67.9546 427.602 68.6315C427.658 69.3083 427.722 69.8747 427.791 70.3309C427.875 70.787 427.96 71.1696 428.044 71.4786V71.5668H422.988V71.4786C423.073 71.1696 423.15 70.787 423.221 70.3309C423.305 69.8747 423.375 69.3083 423.431 68.6315C423.487 67.9546 423.529 67.1528 423.558 66.2258C423.585 65.2842 423.599 64.1879 423.599 62.9374V61.4576L427.433 61.4407V62.9374ZM430.086 58.1661C430.669 58.1547 431.238 58.1192 431.794 58.0598L439.251 69.0729C439.559 69.5291 439.826 69.9925 440.051 70.4633C440.29 70.9195 440.43 71.2872 440.472 71.5668H446.559V71.4786C446.279 71.3608 446.005 71.2138 445.739 71.0371C445.471 70.8459 445.191 70.6105 444.896 70.3309C444.615 70.0514 444.313 69.7129 443.99 69.3156C443.681 68.9184 443.344 68.4475 442.979 67.9031L435.585 57.0225C436.4 56.6399 437.137 56.1691 437.797 55.61C438.456 55.0362 439.018 54.3814 439.482 53.6458C439.959 52.91 440.325 52.0934 440.577 51.1959C440.845 50.2837 440.978 49.2979 440.978 48.2385C440.978 46.8849 440.739 45.6784 440.261 44.619C439.799 43.5448 439.145 42.64 438.303 41.9043C437.459 41.1687 436.462 40.6096 435.311 40.227C434.174 39.8445 432.931 39.6531 431.583 39.6531C430.136 39.6531 428.943 39.7267 428.002 39.8738C427.075 40.0063 426.338 40.0725 425.79 40.0725H424.758C424.435 40.0578 424.14 40.0357 423.874 40.0063C423.565 39.9768 423.27 39.9474 422.988 39.918V40.0063C423.073 40.3153 423.15 40.6979 423.221 41.1539C423.305 41.61 423.375 42.1839 423.431 42.8754C423.487 43.5522 423.529 44.3615 423.558 45.3031C423.585 46.2301 423.599 47.3189 423.599 48.5696V52.7506L427.433 52.7337V41.6395C427.671 41.5513 427.973 41.4703 428.339 41.3967C428.648 41.3378 429.027 41.2863 429.476 41.2423C429.925 41.1834 430.453 41.1539 431.057 41.1539C432.012 41.1539 432.847 41.3305 433.564 41.6836C434.279 42.0221 434.869 42.5076 435.332 43.1403C435.81 43.7583 436.168 44.516 436.407 45.4135C436.646 46.3111 436.764 47.3115 436.764 48.415C436.764 50.0042 436.533 51.3578 436.069 52.476C435.62 53.5795 434.981 54.455 434.153 55.1024C433.338 55.7497 432.356 56.1691 431.204 56.3604C430.841 56.4214 430.466 56.4592 430.079 56.4738L430.086 58.1661ZM463.892 39.918L474.134 51.3358L474.157 57.2575L465.704 47.8412V62.9374C465.704 64.1879 465.718 65.2842 465.746 66.2258C465.775 67.1528 465.817 67.9546 465.873 68.6315C465.928 69.3083 465.992 69.8747 466.062 70.3309C466.132 70.787 466.21 71.1696 466.294 71.4786V71.5668H462.544V71.4786C462.629 71.1696 462.706 70.787 462.776 70.3309C462.86 69.8747 462.93 69.3083 462.986 68.6315C463.043 67.9546 463.084 67.1528 463.113 66.2258C463.141 65.2842 463.155 64.1879 463.155 62.9374V48.5696C463.155 47.3189 463.141 46.2301 463.113 45.3031C463.084 44.3615 463.043 43.5522 462.986 42.8754C462.93 42.1839 462.86 41.61 462.776 41.1539C462.706 40.6979 462.629 40.3153 462.544 40.0063V39.918H463.892ZM480.434 64.2496L480.411 58.3339L485.589 64.1071V48.5696C485.589 47.3189 485.575 46.2301 485.547 45.3031C485.518 44.3615 485.476 43.5522 485.42 42.8754C485.364 42.1839 485.294 41.61 485.209 41.1539C485.14 40.6979 485.062 40.3153 484.978 40.0063V39.918H488.728V40.0063C488.644 40.3153 488.566 40.6979 488.495 41.1539C488.426 41.61 488.362 42.1839 488.306 42.8754C488.249 43.5522 488.207 44.3615 488.18 45.3031C488.151 46.2301 488.138 47.3189 488.138 48.5696V72.0083H487.4L480.434 64.2496ZM508.84 39.918C510.596 39.918 512.337 39.9106 514.064 39.8959C515.806 39.8813 517.4 39.8666 518.846 39.8517C520.293 39.8224 521.528 39.7856 522.553 39.7414C523.579 39.6973 524.274 39.6384 524.639 39.5649L523.606 42.5002C523.144 42.3678 522.602 42.2501 521.985 42.1472C521.451 42.0588 520.798 41.9779 520.026 41.9043C519.267 41.8161 518.39 41.7719 517.393 41.7719C517.056 41.7719 516.649 41.7866 516.17 41.8161C515.708 41.8308 515.259 41.8529 514.822 41.8822C514.317 41.9117 513.805 41.9411 513.285 41.9705V50.1094L509.451 50.1263V48.5696C509.451 47.3189 509.437 46.2301 509.41 45.3031C509.381 44.3615 509.339 43.5522 509.283 42.8754C509.226 42.1839 509.157 41.61 509.072 41.1539C509.002 40.6979 508.924 40.3153 508.84 40.0063V39.918ZM509.451 58.8431V62.9374C509.451 64.1879 509.437 65.2842 509.41 66.2258C509.381 67.1528 509.339 67.9546 509.283 68.6315C509.226 69.3083 509.157 69.8747 509.072 70.3309C509.002 70.787 508.924 71.1696 508.84 71.4786V71.5668H517.94H518.614C518.937 71.5815 519.303 71.5889 519.709 71.5889C520.117 71.6036 520.546 71.611 520.995 71.611C521.458 71.6257 521.894 71.6404 522.301 71.6551C522.722 71.6698 523.102 71.6846 523.438 71.6993C523.775 71.714 524.028 71.7287 524.197 71.7434L524.807 68.1681C523.81 68.4475 522.707 68.6904 521.501 68.8963C520.461 69.0876 519.247 69.2569 517.857 69.4039C516.465 69.5511 514.942 69.6246 513.285 69.6246V58.8262L509.451 58.8431ZM515.141 55.8407C515.5 55.861 515.864 55.8871 516.234 55.919C517.26 55.9925 518.208 56.0808 519.078 56.1838C520.089 56.3015 521.079 56.4266 522.048 56.5591L522.701 53.3588C521.97 53.4765 521.128 53.5795 520.173 53.6678C519.358 53.7413 518.368 53.8149 517.203 53.8885C516.557 53.9293 515.867 53.9611 515.134 53.9838L515.141 55.8407ZM552.693 60.6582L556.527 60.6413V62.9374C556.527 64.1879 556.541 65.2842 556.569 66.2258C556.597 67.1528 556.639 67.9546 556.696 68.6315C556.752 69.3083 556.814 69.8747 556.885 70.3309C556.969 70.787 557.054 71.1696 557.138 71.4786V71.5668H552.082V71.4786C552.167 71.1696 552.244 70.787 552.314 70.3309C552.398 69.8747 552.462 69.3083 552.504 68.6315C552.56 67.9546 552.602 67.1528 552.63 66.2258C552.672 65.2842 552.693 64.1879 552.693 62.9374V60.6582ZM556.269 52.7759L558.978 52.764L565.29 43.4493C565.894 42.537 566.455 41.8087 566.975 41.2642C567.495 40.7051 567.908 40.2858 568.218 40.0063V39.918H564.11C564.11 40.1239 564.047 40.3741 563.92 40.6684C563.808 40.9627 563.653 41.2863 563.457 41.6395C563.26 41.9926 563.043 42.3605 562.804 42.743C562.565 43.1256 562.327 43.5008 562.088 43.8686L556.269 52.7759ZM548.418 44.31L554.325 52.7845L549.873 52.8041L543.278 43.4051C542.954 42.949 542.631 42.5296 542.308 42.1472C541.999 41.7646 541.705 41.4335 541.424 41.1539C541.142 40.8597 540.89 40.6169 540.666 40.4257C540.44 40.2343 540.265 40.0946 540.138 40.0063V39.918H546.522C546.522 40.2564 546.655 40.8155 546.922 41.5953C547.202 42.3605 547.701 43.2654 548.418 44.31Z" fill="white"/>
</svg>
