<svg width="163" height="172" viewBox="0 0 163 172" fill="none" xmlns="http://www.w3.org/2000/svg">
<path d="M160.037 119.199L148.487 114.57C153.569 104.386 156.341 93.0449 156.341 81.2407V15.7389H156.572C159.806 14.8131 162.348 11.5728 162.348 8.10093C162.348 3.70328 158.651 0 154.262 0C149.873 0 146.176 3.70328 146.176 8.10093C146.176 11.8042 148.718 14.8131 151.952 15.7389V55.3178C141.325 26.3859 113.603 5.55492 81.0294 5.55492C39.4463 5.55492 5.48667 39.5788 5.48667 81.2407C5.48667 93.0449 8.25888 104.386 13.1103 114.339L1.55937 118.505C0.866316 118.736 0.404281 119.199 0.173263 119.894C-0.0577544 120.588 -0.0577544 121.282 0.173263 121.745C15.6514 152.529 46.6078 171.74 81.0294 171.74C114.989 171.74 145.945 152.76 161.424 122.44C161.655 121.977 161.655 121.282 161.424 120.588C161.193 119.894 160.731 119.431 160.037 119.199ZM150.797 8.10093C150.797 6.24929 152.414 4.6291 154.262 4.6291C156.11 4.6291 157.727 6.24929 157.727 8.10093C157.727 9.95257 156.11 11.5728 154.262 11.5728C152.414 11.5728 150.797 9.95257 150.797 8.10093ZM10.107 81.4722C10.107 42.3563 41.9875 10.4155 81.0294 10.4155C120.071 10.4155 151.952 42.3563 151.952 81.4722C151.952 120.588 120.071 152.529 81.0294 152.529C41.9875 152.529 10.107 120.588 10.107 81.4722ZM81.0294 167.342C49.149 167.342 20.5028 150.214 5.48667 122.208L15.1894 118.736C28.1264 141.651 52.8453 157.158 81.0294 157.158C108.983 157.158 133.701 141.651 146.638 118.968L156.11 122.903C141.094 150.214 112.448 167.342 81.0294 167.342Z" fill="url(#paint0_linear)"/>
<path d="M88.932 71.317C89.9202 71.317 90.7213 70.5159 90.7213 69.5277C90.7213 68.5394 89.9202 67.7383 88.932 67.7383C87.9437 67.7383 87.1426 68.5394 87.1426 69.5277C87.1426 70.5159 87.9437 71.317 88.932 71.317Z" fill="white"/>
<path d="M72.0667 71.317C73.055 71.317 73.8561 70.5159 73.8561 69.5277C73.8561 68.5394 73.055 67.7383 72.0667 67.7383C71.0785 67.7383 70.2773 68.5394 70.2773 69.5277C70.2773 70.5159 71.0785 71.317 72.0667 71.317Z" fill="white"/>
<path d="M77.6122 75.1463L80.4988 72.9974L83.3853 75.1464C83.8958 75.5265 84.6213 75.4242 85.0047 74.9093C85.3863 74.3967 85.2801 73.6717 84.7674 73.2899L81.1897 70.6265C80.7797 70.3211 80.2176 70.3211 79.8077 70.6265L76.23 73.2899C75.7173 73.6717 75.6111 74.3966 75.9927 74.9093C76.3746 75.4219 77.0994 75.528 77.6122 75.1463Z" fill="white"/>
<path d="M55.8486 67.4957C55.6903 68.6279 55.6066 69.7839 55.6066 70.9591C55.6066 77.8202 58.3961 83.951 63.4725 88.2843C63.5018 88.7402 63.5633 89.2019 63.6581 89.6674L63.212 90.1136C61.0094 92.3165 61.0094 95.9008 63.212 98.1037C63.8064 98.6981 64.5016 99.1304 65.2427 99.404C65.4393 103.65 67.3774 107.447 70.3573 110.099V115.815H69.2157C66.6834 115.815 64.6234 117.875 64.6234 120.408C64.6234 122.94 66.6835 125 69.2157 125H74.9497C76.0981 125 77.1745 124.575 78.0004 123.839C78.8119 124.561 79.8793 125 81.0479 125H86.7819C89.3143 125 91.3743 122.94 91.3743 120.408V109.403C93.9367 106.802 95.5762 103.291 95.7561 99.4037C96.4972 99.1301 97.1925 98.6976 97.7868 98.1034C99.9894 95.9005 99.9894 92.3162 97.7868 90.1133L97.3408 89.6672C97.4357 89.2016 97.4972 88.7399 97.5264 88.2841C102.603 83.9509 105.392 77.82 105.392 70.9589C105.392 69.7838 105.309 68.6279 105.15 67.4957C108.936 65.5593 111.337 61.6803 111.337 57.3734C111.337 51.1021 106.235 46 99.9632 46C97.1042 46 94.3436 47.093 92.2524 49.0207C88.7498 47.1367 84.7475 46.0662 80.4994 46.0662C76.2513 46.0662 72.249 47.1367 68.7465 49.0207C66.6553 47.093 63.8948 46 61.0356 46C54.7642 46 49.6621 51.1021 49.6621 57.3734C49.6621 61.6803 52.0624 65.5593 55.8486 67.4957ZM69.8588 81.5597C70.9495 81.0694 72.3097 80.7774 73.7852 80.8654C75.9739 81.0285 78.12 82.033 79.7253 83.4782C80.1641 83.8732 80.8322 83.8756 81.2737 83.4782C82.8784 82.0337 85.0243 81.0285 87.2137 80.8654C89.4317 80.7332 91.6944 81.4392 93.3218 83.043C94.5742 84.2874 95.2052 85.8765 95.2328 87.5592L93.4412 85.7679C91.377 83.7035 88.0981 83.5727 85.8798 85.3807C83.2771 87.5006 83.0962 91.4029 85.4513 93.7578L89.2292 97.5359C86.7068 99.6493 83.4781 101.545 80.5275 103C80.524 103.002 80.5184 103.002 80.5136 103.003C80.4993 103.006 80.4825 103.006 80.472 103C77.6172 101.593 74.1902 99.5811 71.7702 97.5359L75.5482 93.7578C77.7508 91.5552 77.7514 87.9704 75.5482 85.7677C73.4917 83.7114 70.2317 83.5755 68.0154 85.3584C67.6 85.6924 67.5414 85.7989 65.7667 87.5592C65.8107 84.8428 67.4109 82.6603 69.8588 81.5597ZM64.8486 91.7501L69.1944 87.4045C70.5107 86.0882 72.6281 86.1215 73.9113 87.4045C75.2143 88.7075 75.209 90.8239 73.9113 92.1213L69.5658 96.467C69.5658 96.467 69.5656 96.467 69.5656 96.4671C68.2649 97.7672 66.1493 97.7677 64.8486 96.4671C63.5482 95.1665 63.5482 93.0505 64.8486 91.7501ZM79.542 113.932C79.8588 113.952 80.1779 113.963 80.4994 113.963C81.0706 113.963 81.6344 113.93 82.1896 113.869V115.815H81.0479C80.5206 115.815 80.0142 115.906 79.542 116.07V113.932ZM74.9497 122.686H69.2157C67.9596 122.686 66.9378 121.664 66.9378 120.408C66.9378 119.152 67.9597 118.13 69.2157 118.13H71.5146C72.1537 118.13 72.6718 117.612 72.6718 116.973V114.058C74.0888 114.782 75.6189 115.315 77.2276 115.625V117.86C76.7415 118.592 76.4558 119.475 76.4558 120.408C76.4558 120.875 76.5306 121.385 76.6955 121.871C76.2678 122.382 75.634 122.686 74.9497 122.686ZM86.7819 122.686H81.0479C79.7873 122.686 78.7701 121.652 78.7701 120.408C78.7701 119.158 79.7867 118.13 81.0479 118.13H83.3468C83.9859 118.13 84.504 117.612 84.504 116.973V115.467C86.1223 115.081 87.6532 114.467 89.0598 113.66V120.408C89.0598 121.664 88.0381 122.686 86.7819 122.686ZM80.4994 111.649C73.7745 111.649 68.1277 106.468 67.5826 99.7464C68.4545 99.6891 69.289 99.4207 69.9639 99.0412C72.7438 101.415 76.1555 103.452 79.4476 105.076C80.1041 105.4 80.8901 105.402 81.5513 105.076C84.9102 103.404 88.1711 101.486 91.0348 99.0412C91.7285 99.429 92.5528 99.6898 93.4161 99.7464C92.8767 106.4 87.2894 111.649 80.4994 111.649ZM96.1504 96.467C94.8588 97.7584 92.7415 97.7749 91.4335 96.4673C91.4334 96.4671 91.4332 96.4671 91.4332 96.467C86.9223 91.9476 87.0558 92.1096 86.8592 91.8684C85.7926 90.5597 85.8688 88.6237 87.0877 87.4046C88.4027 86.0899 90.5256 86.1257 91.8046 87.4046L96.1502 91.7503C97.4506 93.0505 97.4506 95.1665 96.1504 96.467ZM99.9632 48.3145C104.958 48.3145 109.022 52.3783 109.022 57.3734C109.022 60.569 107.363 63.4698 104.698 65.0989C103.237 59.0355 99.5491 53.7533 94.3451 50.2699C95.935 49.0148 97.9183 48.3145 99.9632 48.3145ZM103.078 70.9591C103.078 76.5468 101.027 81.5921 97.2579 85.3821C96.1616 81.1763 92.0921 78.5224 87.76 78.5224C85.2948 78.5224 82.7157 79.386 80.4993 81.1096C79.4098 80.2624 78.2419 79.6253 77.0534 79.2013C71.1253 77.0627 65.0864 80.219 63.7406 85.3821C59.9716 81.5921 57.9207 76.5468 57.9207 70.9591C57.9207 58.5092 68.0494 48.3806 80.4993 48.3806C92.9492 48.3806 103.078 58.5092 103.078 70.9591ZM61.0356 48.3145C63.0805 48.3145 65.0639 49.0148 66.6536 50.27C61.4496 53.7534 57.7619 59.0356 56.3007 65.099C53.6356 63.47 51.9766 60.5692 51.9766 57.3735C51.9766 52.3783 56.0404 48.3145 61.0356 48.3145Z" fill="white"/>
<defs>
<linearGradient id="paint0_linear" x1="81.1738" y1="0" x2="81.1738" y2="171.74" gradientUnits="userSpaceOnUse">
<stop stop-color="#1D18FF"/>
<stop offset="1" stop-color="#FED3FF"/>
</linearGradient>
</defs>
</svg>
