<svg width="81" height="80" viewBox="0 0 81 80" fill="none" xmlns="http://www.w3.org/2000/svg">
<circle cx="40.834" cy="40" r="39.5" fill="url(#paint0_linear)" stroke="black"/>
<path d="M27.1378 25.7374L27.1868 26.1827H27.6348H64.7153C65.1831 26.1827 65.6244 26.3913 65.9174 26.7477L66.3036 26.4302L65.9174 26.7477C66.2102 27.104 66.3243 27.5703 66.2299 28.0175L66.2299 28.0176L64.7142 35.2051C64.5633 35.9209 63.9227 36.4199 63.2014 36.4199C63.0966 36.4199 62.99 36.4094 62.8824 36.3872L62.7813 36.8769L62.8824 36.3872C62.0423 36.2138 61.512 35.4035 61.6846 34.5847C61.6846 34.5847 61.6846 34.5847 61.6846 34.5847L62.6863 29.8353L62.8135 29.2321H62.197H28.0806H27.5226L27.5836 29.7868L29.4107 46.3889L29.4597 46.8342H29.9077H54.5135C56.7075 46.8342 58.784 45.3975 59.7176 43.2937C60.0592 42.5238 60.9723 42.1678 61.7588 42.5093L61.7589 42.5094C62.5425 42.8495 62.8929 43.7487 62.5526 44.5155C61.1016 47.7848 57.9406 49.8835 54.5135 49.8835H28.3784C26.9787 49.8835 25.8313 51.0104 25.8313 52.4081C25.8313 52.4159 25.8313 52.423 25.8312 52.4296C25.8311 52.4346 25.831 52.4392 25.8308 52.4436L25.8304 52.4589L25.8309 52.4741C25.8312 52.484 25.8313 52.4956 25.8313 52.5093C25.8313 53.907 26.9786 55.0341 28.3784 55.0341H55.1961C58.2552 55.0341 60.7352 57.4948 60.7352 60.5067C60.7352 63.5187 58.2552 65.9794 55.1961 65.9794C52.137 65.9794 49.6571 63.5187 49.6571 60.5067C49.6571 59.8903 49.7605 59.2985 49.951 58.7463L50.1797 58.0833H49.4783H40.6472H39.9461L40.1745 58.7462C40.3649 59.2984 40.4683 59.8903 40.4683 60.5067C40.4683 63.5187 37.9884 65.9794 34.9293 65.9794C31.8701 65.9794 29.3902 63.5187 29.3902 60.5067C29.3902 59.8903 29.4937 59.2985 29.6841 58.7463L29.9128 58.0833H29.2115H28.3784C25.2629 58.0833 22.7369 55.5771 22.7369 52.5093C22.7369 52.4983 22.7371 52.4863 22.7375 52.469L22.7377 52.4589L22.7375 52.4487C22.7371 52.4311 22.7369 52.4191 22.7369 52.4081C22.7369 50.1574 24.0957 48.2086 26.0533 47.3298L26.3854 47.1808L26.3456 46.819L23.9124 24.7097L23.9126 24.7097L23.9109 24.6971C23.4069 20.9852 20.1806 18.1976 16.4026 18.1976C15.5428 18.1976 14.8555 17.5099 14.8555 16.673C14.8555 15.8361 15.5428 15.1484 16.4026 15.1484C21.7422 15.1484 26.2874 19.0972 26.9816 24.3217L26.9864 24.3605L27.1378 25.7374ZM34.9293 62.9302C36.2727 62.9302 37.3741 61.8486 37.3741 60.5067C37.3741 59.1649 36.2727 58.0833 34.9293 58.0833C33.5859 58.0833 32.4844 59.1647 32.4844 60.5067C32.4844 61.8486 33.5858 62.9302 34.9293 62.9302ZM52.7513 60.5067C52.7513 61.8485 53.8527 62.9302 55.1959 62.9302C56.5394 62.9302 57.6408 61.8486 57.6408 60.5067C57.6408 59.1647 56.5393 58.0833 55.1959 58.0833C53.8527 58.0833 52.7513 59.1647 52.7513 60.5067Z" fill="black" stroke="black"/>
<defs>
<linearGradient id="paint0_linear" x1="41.75" y1="-33.7971" x2="41.75" y2="82.2905" gradientUnits="userSpaceOnUse">
<stop stop-color="#0300A0"/>
<stop offset="0.833333" stop-color="#FED3FF"/>
<stop offset="0.979067" stop-color="white"/>
<stop offset="0.979167" stop-color="white"/>
</linearGradient>
</defs>
</svg>
