<svg width="164" height="173" viewBox="0 0 164 173" fill="none" xmlns="http://www.w3.org/2000/svg">
<path d="M160.755 119.734L149.152 115.084C154.258 104.854 157.042 93.4622 157.042 81.605V15.8095H157.274C160.523 14.8796 163.076 11.6247 163.076 8.13725C163.076 3.71989 159.363 0 154.954 0C150.545 0 146.832 3.71989 146.832 8.13725C146.832 11.8571 149.385 14.8796 152.633 15.8095V55.5658C141.959 26.5042 114.112 5.57983 81.3928 5.57983C39.6232 5.57983 5.51127 39.7563 5.51127 81.605C5.51127 93.4622 8.29592 104.854 13.169 114.852L1.56636 119.036C0.870201 119.269 0.406094 119.734 0.17404 120.431C-0.0580134 121.129 -0.0580134 121.826 0.17404 122.291C15.7216 153.213 46.8168 172.51 81.3928 172.51C115.505 172.51 146.6 153.445 162.147 122.989C162.38 122.524 162.38 121.826 162.147 121.129C161.915 120.431 161.451 119.966 160.755 119.734ZM151.473 8.13725C151.473 6.27731 153.097 4.64986 154.954 4.64986C156.81 4.64986 158.435 6.27731 158.435 8.13725C158.435 9.9972 156.81 11.6247 154.954 11.6247C153.097 11.6247 151.473 9.9972 151.473 8.13725ZM10.1523 81.8375C10.1523 42.5462 42.1757 10.4622 81.3928 10.4622C120.61 10.4622 152.633 42.5462 152.633 81.8375C152.633 121.129 120.61 153.213 81.3928 153.213C42.1757 153.213 10.1523 121.129 10.1523 81.8375ZM81.3928 168.092C49.3694 168.092 20.5948 150.888 5.51127 122.756L15.2575 119.269C28.2525 142.286 53.0823 157.863 81.3928 157.863C109.471 157.863 134.301 142.286 147.296 119.501L156.81 123.454C141.727 150.888 112.952 168.092 81.3928 168.092Z" fill="url(#paint0_linear)"/>
<path d="M109.265 104.636C108.801 104.284 108.26 104.047 107.687 103.943C107.114 103.839 106.525 103.872 105.967 104.039L91.0798 108.422H82.8335L76.9742 105.167H87.9766C88.2644 105.167 88.5404 105.053 88.7439 104.849C88.9473 104.646 89.0616 104.37 89.0616 104.082V100.827C89.0595 100.539 88.9468 100.264 88.747 100.057L86.5769 97.8866C86.4247 97.7375 86.2325 97.6357 86.0235 97.5937L69.7478 94.3385C69.6761 94.3259 69.6036 94.3187 69.5308 94.3168H63.0206C62.883 94.3147 62.7464 94.3406 62.6191 94.3928L58.6804 95.9661V94.3168C58.6811 94.0586 58.5897 93.8086 58.4227 93.6117C58.2556 93.4148 58.0238 93.284 57.7689 93.2426L51.2587 92.1576C51.1029 92.1356 50.9442 92.1464 50.7928 92.1894C50.6414 92.2323 50.5007 92.3065 50.3798 92.4072C50.2613 92.5095 50.1661 92.6361 50.1006 92.7783C50.0351 92.9206 50.0008 93.0752 50 93.2318V114.933C50 115.22 50.1143 115.496 50.3178 115.7C50.5213 115.903 50.7973 116.018 51.085 116.018C51.1431 116.02 51.2012 116.016 51.2587 116.007L57.7689 114.922C58.0238 114.881 58.2556 114.75 58.4227 114.553C58.5897 114.356 58.6811 114.106 58.6804 113.848V112.763H61.7619L74.6088 117.049C74.7215 117.082 74.8384 117.101 74.9561 117.103H91.2317C91.3541 117.103 91.4755 117.081 91.5898 117.038L108.267 111.157C108.996 110.899 109.628 110.422 110.075 109.79C110.522 109.159 110.762 108.404 110.763 107.63C110.766 107.049 110.632 106.474 110.372 105.954C110.112 105.434 109.733 104.982 109.265 104.636ZM56.5103 112.925L52.1701 113.652V94.5122L56.5103 95.2391V112.925ZM107.551 109.106L91.0473 114.933H75.1297L62.2827 110.647C62.17 110.613 62.0532 110.595 61.9355 110.593H58.6804V98.3098L63.2267 96.4869H69.4223L85.2748 99.6553L86.8916 101.272V102.997H72.786C72.5466 102.998 72.3143 103.078 72.125 103.224C71.9358 103.371 71.8003 103.576 71.7397 103.807C71.679 104.039 71.6966 104.284 71.7896 104.504C71.8827 104.725 72.0461 104.908 72.2543 105.026L82.0197 110.451C82.1808 110.546 82.3646 110.595 82.5514 110.593H91.2317C91.3347 110.595 91.4374 110.58 91.5356 110.549L106.585 106.122C106.818 106.051 107.065 106.037 107.304 106.08C107.544 106.124 107.77 106.224 107.963 106.372C108.19 106.542 108.367 106.77 108.475 107.032C108.583 107.295 108.617 107.582 108.575 107.862C108.533 108.143 108.415 108.407 108.235 108.626C108.054 108.845 107.818 109.011 107.551 109.106Z" fill="url(#paint1_linear)"/>
<path d="M82.5521 93.2316C92.1244 93.2316 99.9129 83.0094 99.9129 70.4456V57.4251C99.9128 57.1861 99.8339 56.9538 99.6883 56.7643C99.5427 56.5747 99.3387 56.4386 99.1078 56.3769L82.8321 52.0367C82.6487 51.9878 82.4556 51.9878 82.2722 52.0367L65.9965 56.3769C65.7656 56.4386 65.5615 56.5747 65.416 56.7643C65.2704 56.9538 65.1914 57.1861 65.1914 57.4251V70.4456C65.1914 83.0094 72.9799 93.2316 82.5521 93.2316ZM67.3615 58.2595L82.5521 54.2079L97.7428 58.2595V70.4456C97.7428 81.8137 90.9287 91.0615 82.5521 91.0615C74.1756 91.0615 67.3615 81.8137 67.3615 70.4456V58.2595Z" fill="white"/>
<path d="M78.2104 76.9552V80.2103C78.2104 80.7859 78.439 81.3379 78.846 81.7448C79.253 82.1518 79.8049 82.3804 80.3805 82.3804H84.7207C85.2962 82.3804 85.8482 82.1518 86.2551 81.7448C86.6621 81.3379 86.8908 80.7859 86.8908 80.2103V76.9552H90.1459C90.7214 76.9552 91.2734 76.7266 91.6804 76.3196C92.0874 75.9126 92.316 75.3607 92.316 74.7851V70.4449C92.316 69.8694 92.0874 69.3174 91.6804 68.9104C91.2734 68.5035 90.7214 68.2748 90.1459 68.2748H86.8908V65.0197C86.8908 64.4442 86.6621 63.8922 86.2551 63.4852C85.8482 63.0782 85.2962 62.8496 84.7207 62.8496H80.3805C79.8049 62.8496 79.253 63.0782 78.846 63.4852C78.439 63.8922 78.2104 64.4442 78.2104 65.0197V68.2748H74.9552C74.3797 68.2748 73.8277 68.5035 73.4208 68.9104C73.0138 69.3174 72.7852 69.8694 72.7852 70.4449V74.7851C72.7852 75.3607 73.0138 75.9126 73.4208 76.3196C73.8277 76.7266 74.3797 76.9552 74.9552 76.9552H78.2104ZM74.9552 70.4449H78.2104C78.7859 70.4449 79.3379 70.2163 79.7449 69.8093C80.1518 69.4024 80.3805 68.8504 80.3805 68.2748V65.0197H84.7207V68.2748C84.7207 68.8504 84.9493 69.4024 85.3563 69.8093C85.7632 70.2163 86.3152 70.4449 86.8908 70.4449H90.1459V74.7851H86.8908C86.3152 74.7851 85.7632 75.0137 85.3563 75.4207C84.9493 75.8277 84.7207 76.3797 84.7207 76.9552V80.2103H80.3805V76.9552C80.3805 76.3797 80.1518 75.8277 79.7449 75.4207C79.3379 75.0137 78.7859 74.7851 78.2104 74.7851H74.9552V70.4449Z" fill="white"/>
<path d="M103.391 58.5103H105.561V56.3402H107.731V54.1701H105.561V52H103.391V54.1701H101.221V56.3402H103.391V58.5103Z" fill="white"/>
<path d="M114.243 60.6808H112.073V58.5107H109.903V60.6808H107.732V62.8509H109.903V65.021H112.073V62.8509H114.243V60.6808Z" fill="white"/>
<path d="M99.051 85.6357V87.8058H96.8809V89.9759H99.051V92.146H101.221V89.9759H103.391V87.8058H101.221V85.6357H99.051Z" fill="white"/>
<path d="M107.731 79.125H105.561V81.2951H103.391V83.4652H105.561V85.6353H107.731V83.4652H109.901V81.2951H107.731V79.125Z" fill="white"/>
<path d="M58.6799 58.5103H60.8499V56.3402H63.02V54.1701H60.8499V52H58.6799V54.1701H56.5098V56.3402H58.6799V58.5103Z" fill="white"/>
<path d="M52.1701 65.021H54.3402V62.8509H56.5103V60.6808H54.3402V58.5107H52.1701V60.6808H50V62.8509H52.1701V65.021Z" fill="white"/>
<path d="M63.0217 85.6357V87.8058H60.8516V89.9759H63.0217V92.146H65.1917V89.9759H67.3618V87.8058H65.1917V85.6357H63.0217Z" fill="white"/>
<path d="M58.68 85.6353V83.4652H60.8501V81.2951H58.68V79.125H56.5099V81.2951H54.3398V83.4652H56.5099V85.6353H58.68Z" fill="white"/>
<defs>
<linearGradient id="paint0_linear" x1="81.5378" y1="0" x2="81.5378" y2="172.51" gradientUnits="userSpaceOnUse">
<stop stop-color="#1D18FF"/>
<stop offset="1" stop-color="#FED3FF"/>
</linearGradient>
<linearGradient id="paint1_linear" x1="80.3813" y1="92.1465" x2="80.3813" y2="117.103" gradientUnits="userSpaceOnUse">
<stop stop-color="white"/>
<stop offset="1" stop-color="white"/>
</linearGradient>
</defs>
</svg>
